<svg width="60" height="76" viewBox="0 0 60 76" fill="none" xmlns="http://www.w3.org/2000/svg">
<path d="M55.9997 0.000222147H4C2.11438 0.000222147 1.17157 0.000222147 0.585786 0.586009C0 1.1718 0 2.1146 0 4.00022V7.85202C0 9.73763 0 10.6804 0.585786 11.2662C1.17157 11.852 2.11438 11.852 4 11.852H55.9997C57.8853 11.852 58.8281 11.852 59.4139 11.2662C59.9997 10.6804 59.9997 9.73764 59.9997 7.85202V4.00022C59.9997 2.1146 59.9997 1.1718 59.4139 0.586009C58.8281 0.000222147 57.8853 0.000222147 55.9997 0.000222147Z" fill="#4AA181"/>
<path d="M24.0741 3.99999V55.259C24.0741 57.1446 24.0741 58.0874 24.6599 58.6732C25.2457 59.259 26.1885 59.259 28.0741 59.259H31.9259C33.8115 59.259 34.7543 59.259 35.3401 58.6732C35.9259 58.0874 35.9259 57.1446 35.9259 55.259V4C35.9259 2.11438 35.9259 1.17157 35.3401 0.585785C34.7543 0 33.8115 0 31.9259 0H28.0741C26.1885 0 25.2457 0 24.6599 0.585785C24.0741 1.17157 24.0741 2.11438 24.0741 3.99999Z" fill="#4AA181"/>
<path d="M0 27.7036V55.259C0 57.1446 0 58.0874 0.585786 58.6732C1.17157 59.259 2.11438 59.259 4 59.259H7.85179C9.73741 59.259 10.6802 59.259 11.266 58.6732C11.8518 58.0874 11.8518 57.1446 11.8518 55.259V27.7036C11.8518 25.818 11.8518 24.8752 11.266 24.2894C10.6802 23.7036 9.73741 23.7036 7.8518 23.7036H4C2.11438 23.7036 1.17157 23.7036 0.585786 24.2894C0 24.8752 0 25.818 0 27.7036Z" fill="#4AA181"/>
<path d="M48.1484 27.7036V55.259C48.1484 57.1446 48.1484 58.0874 48.7342 58.6732C49.32 59.259 50.2628 59.259 52.1484 59.259H56.0002C57.8858 59.259 58.8287 59.259 59.4144 58.6732C60.0002 58.0874 60.0002 57.1446 60.0002 55.259V27.7036C60.0002 25.818 60.0002 24.8752 59.4144 24.2894C58.8287 23.7036 57.8859 23.7036 56.0002 23.7036H52.1484C50.2628 23.7036 49.32 23.7036 48.7342 24.2894C48.1484 24.8752 48.1484 25.818 48.1484 27.7036Z" fill="#4AA181"/>
<path d="M2.45485 75.9075H0V69.3733H2.47513C3.17169 69.3733 3.77131 69.5041 4.274 69.7657C4.77669 70.0252 5.16329 70.3985 5.4338 70.8856C5.70656 71.3727 5.84294 71.9555 5.84294 72.634C5.84294 73.3146 5.70656 73.8996 5.4338 74.3888C5.16329 74.878 4.77444 75.2534 4.26724 75.515C3.76229 75.7767 3.15816 75.9075 2.45485 75.9075ZM1.46412 74.7238H2.39398C2.82679 74.7238 3.19085 74.6515 3.48615 74.5068C3.78371 74.3601 4.00688 74.1335 4.15565 73.8273C4.30669 73.5188 4.3822 73.1211 4.3822 72.634C4.3822 72.1512 4.30669 71.7566 4.15565 71.4503C4.00688 71.144 3.78483 70.9186 3.48953 70.7739C3.19423 70.6293 2.83017 70.557 2.39736 70.557H1.46412V74.7238Z" fill="#4AA181"/>
<path d="M7.73056 75.9075H6.16163L8.55223 69.3733H10.439L12.8262 75.9075H11.2573L9.52267 70.8665H9.46857L7.73056 75.9075ZM7.63251 73.3391H11.3384V74.4175H7.63251V73.3391Z" fill="#4AA181"/>
<path d="M12.5498 70.5123V69.3733H18.2372V70.5123H16.1171V75.9075H14.6699V70.5123H12.5498Z" fill="#4AA181"/>
<path d="M19.5213 75.9075H17.9523L20.3429 69.3733H22.2297L24.6169 75.9075H23.048L21.3134 70.8665H21.2593L19.5213 75.9075ZM19.4232 73.3391H23.1291V74.4175H19.4232V73.3391Z" fill="#4AA181"/>
<path d="M24.3405 70.5123V69.3733H30.0279V70.5123H27.9078V75.9075H26.4606V70.5123H24.3405Z" fill="#4AA181"/>
<path d="M30.9645 75.9075V69.3733H35.6308V70.5123H32.4286V72.0693H35.3907V73.2083H32.4286V74.7685H35.6443V75.9075H30.9645Z" fill="#4AA181"/>
<path d="M36.7948 75.9075V69.3733H39.5269C40.0499 69.3733 40.4962 69.4616 40.8659 69.6381C41.2378 69.8125 41.5208 70.0603 41.7146 70.3815C41.9107 70.7005 42.0088 71.076 42.0088 71.5078C42.0088 71.9417 41.9096 72.315 41.7112 72.6276C41.5129 72.9382 41.2254 73.1764 40.849 73.3423C40.4748 73.5082 40.0217 73.5912 39.4897 73.5912H37.6604V72.4809H39.253C39.5325 72.4809 39.7647 72.4447 39.9496 72.3724C40.1344 72.3001 40.2719 72.1916 40.3621 72.0469C40.4545 71.9023 40.5007 71.7226 40.5007 71.5078C40.5007 71.2908 40.4545 71.1079 40.3621 70.959C40.2719 70.8101 40.1333 70.6973 39.9462 70.6208C39.7613 70.5421 39.528 70.5027 39.2462 70.5027H38.2589V75.9075H36.7948ZM40.5345 72.9339L42.2556 75.9075H40.6394L38.9554 72.9339H40.5345Z" fill="#4AA181"/>
<path d="M44.2371 75.9075H42.6681L45.0588 69.3733H46.9455L49.3327 75.9075H47.7638L46.0292 70.8665H45.9751L44.2371 75.9075ZM44.139 73.3391H47.845V74.4175H44.139V73.3391Z" fill="#4AA181"/>
<path d="M50.9811 75.9904C50.758 75.9904 50.5664 75.916 50.4063 75.7671C50.2485 75.6161 50.1696 75.4353 50.1696 75.2247C50.1696 75.0163 50.2485 74.8376 50.4063 74.6887C50.5664 74.5398 50.758 74.4654 50.9811 74.4654C51.1975 74.4654 51.3869 74.5398 51.5492 74.6887C51.7115 74.8376 51.7927 75.0163 51.7927 75.2247C51.7927 75.3651 51.7543 75.4938 51.6777 75.6108C51.6033 75.7256 51.5052 75.8181 51.3835 75.8883C51.2618 75.9564 51.1277 75.9904 50.9811 75.9904Z" fill="#4AA181"/>
<path d="M54.4563 76C54.1249 76 53.8296 75.9458 53.5704 75.8373C53.3112 75.7267 53.106 75.564 52.955 75.3491C52.8062 75.1322 52.7318 74.862 52.7318 74.5387C52.7318 74.2665 52.7848 74.0378 52.8908 73.8528C52.9967 73.6677 53.141 73.5188 53.3236 73.4061C53.5062 73.2934 53.7135 73.2083 53.9457 73.1509C54.1802 73.0934 54.4259 73.053 54.6829 73.0296C54.9849 72.9998 55.2284 72.9722 55.4132 72.9467C55.5981 72.919 55.7322 72.8786 55.8156 72.8254C55.899 72.7723 55.9407 72.6936 55.9407 72.5893V72.5702C55.9407 72.3681 55.8731 72.2118 55.7378 72.1012C55.6048 71.9906 55.4155 71.9353 55.1698 71.9353C54.9105 71.9353 54.7043 71.9895 54.551 72.098C54.3977 72.2043 54.2963 72.3383 54.2467 72.5L52.9144 72.3979C52.9821 72.1001 53.115 71.8428 53.3134 71.6258C53.5118 71.4067 53.7676 71.2387 54.081 71.1217C54.3966 71.0026 54.7618 70.943 55.1765 70.943C55.4651 70.943 55.7412 70.9749 56.005 71.0387C56.271 71.1026 56.5065 71.2015 56.7117 71.3355C56.919 71.4695 57.0825 71.6418 57.2019 71.8523C57.3214 72.0608 57.3812 72.3107 57.3812 72.6021V75.9075H56.0151V75.2279H55.9745C55.8911 75.381 55.7795 75.5161 55.6398 75.6331C55.5 75.7479 55.3321 75.8383 55.136 75.9043C54.9398 75.9681 54.7133 76 54.4563 76ZM54.8688 75.062C55.0807 75.062 55.2678 75.0226 55.4301 74.9439C55.5924 74.8631 55.7198 74.7546 55.8122 74.6185C55.9046 74.4824 55.9509 74.3282 55.9509 74.1559V73.6358C55.9058 73.6635 55.8438 73.689 55.7649 73.7124C55.6882 73.7337 55.6015 73.7539 55.5045 73.773C55.4076 73.79 55.3107 73.806 55.2137 73.8209C55.1168 73.8336 55.0289 73.8453 54.95 73.856C54.7809 73.8794 54.6333 73.9166 54.507 73.9676C54.3808 74.0187 54.2827 74.0878 54.2129 74.175C54.143 74.2601 54.108 74.3664 54.108 74.4941C54.108 74.6791 54.179 74.8206 54.3211 74.9184C54.4653 75.0141 54.6479 75.062 54.8688 75.062Z" fill="#4AA181"/>
<path d="M58.4987 75.9075V71.0068H59.9391V75.9075H58.4987ZM59.2223 70.3751C59.0081 70.3751 58.8244 70.3081 58.6711 70.1741C58.5201 70.038 58.4446 69.8753 58.4446 69.686C58.4446 69.4988 58.5201 69.3382 58.6711 69.2042C58.8244 69.0681 59.0081 69 59.2223 69C59.4364 69 59.619 69.0681 59.7701 69.2042C59.9234 69.3382 60 69.4988 60 69.686C60 69.8753 59.9234 70.038 59.7701 70.1741C59.619 70.3081 59.4364 70.3751 59.2223 70.3751Z" fill="#4AA181"/>
</svg>
